# Blender v2.76 (sub 0) OBJ File: ''
# www.blender.org
mtllib spotlight.mtl
g Cone
v -0.010028 0.101824 -0.102317
v 0.000000 -0.000000 0.102317
v -0.005020 0.102193 -0.102317
v 0.000000 0.102317 -0.102317
v 0.005020 0.102193 -0.102317
v -0.015013 0.101209 -0.102317
v -0.019961 0.100351 -0.102317
v -0.024861 0.099250 -0.102317
v -0.029701 0.097911 -0.102317
v -0.034469 0.096336 -0.102317
v -0.039155 0.094528 -0.102317
v -0.043746 0.092493 -0.102317
v -0.048232 0.090235 -0.102317
v -0.052601 0.087760 -0.102317
v -0.056844 0.085073 -0.102317
v -0.060950 0.082181 -0.102317
v -0.064909 0.079092 -0.102317
v -0.068712 0.075812 -0.102317
v -0.072349 0.072349 -0.102317
v -0.075812 0.068712 -0.102317
v -0.079092 0.064909 -0.102317
v -0.082181 0.060950 -0.102317
v -0.085073 0.056844 -0.102317
v -0.087760 0.052601 -0.102317
v -0.090235 0.048232 -0.102317
v -0.092493 0.043746 -0.102317
v -0.094528 0.039155 -0.102317
v -0.096336 0.034469 -0.102317
v -0.097911 0.029701 -0.102317
v -0.099250 0.024861 -0.102317
v -0.100351 0.019961 -0.102317
v -0.101209 0.015013 -0.102317
v -0.101824 0.010029 -0.102317
v -0.102193 0.005020 -0.102317
v -0.102317 0.000000 -0.102317
v -0.102193 -0.005021 -0.102317
v -0.101824 -0.010029 -0.102317
v -0.101209 -0.015013 -0.102317
v -0.100351 -0.019961 -0.102317
v -0.099250 -0.024861 -0.102317
v -0.097911 -0.029701 -0.102317
v -0.096335 -0.034470 -0.102317
v -0.094528 -0.039155 -0.102317
v -0.092493 -0.043746 -0.102317
v -0.090235 -0.048232 -0.102317
v -0.087760 -0.052601 -0.102317
v -0.085073 -0.056844 -0.102317
v -0.082181 -0.060950 -0.102317
v -0.079092 -0.064909 -0.102317
v -0.075811 -0.068712 -0.102317
v -0.072348 -0.072349 -0.102317
v -0.068711 -0.075812 -0.102317
v -0.064909 -0.079092 -0.102317
v -0.060950 -0.082182 -0.102317
v -0.056844 -0.085073 -0.102317
v -0.052601 -0.087760 -0.102317
v -0.048231 -0.090235 -0.102317
v -0.043746 -0.092493 -0.102317
v -0.039155 -0.094528 -0.102317
v -0.034469 -0.096336 -0.102317
v -0.029701 -0.097911 -0.102317
v -0.024861 -0.099250 -0.102317
v -0.019961 -0.100351 -0.102317
v -0.015013 -0.101209 -0.102317
v -0.010029 -0.101824 -0.102317
v -0.005020 -0.102193 -0.102317
v 0.000000 -0.102317 -0.102317
v 0.005021 -0.102193 -0.102317
v 0.010029 -0.101824 -0.102317
v 0.015013 -0.101209 -0.102317
v 0.019961 -0.100351 -0.102317
v 0.024861 -0.099250 -0.102317
v 0.029701 -0.097911 -0.102317
v 0.034470 -0.096336 -0.102317
v 0.039155 -0.094528 -0.102317
v 0.043746 -0.092493 -0.102317
v 0.048232 -0.090235 -0.102317
v 0.052601 -0.087760 -0.102317
v 0.056844 -0.085073 -0.102317
v 0.060950 -0.082181 -0.102317
v 0.064909 -0.079092 -0.102317
v 0.068712 -0.075812 -0.102317
v 0.072349 -0.072349 -0.102317
v 0.075812 -0.068712 -0.102317
v 0.079092 -0.064909 -0.102317
v 0.082181 -0.060950 -0.102317
v 0.085073 -0.056844 -0.102317
v 0.087760 -0.052601 -0.102317
v 0.090235 -0.048232 -0.102317
v 0.092493 -0.043746 -0.102317
v 0.094528 -0.039155 -0.102317
v 0.096336 -0.034469 -0.102317
v 0.097911 -0.029701 -0.102317
v 0.099250 -0.024861 -0.102317
v 0.100351 -0.019961 -0.102317
v 0.101209 -0.015013 -0.102317
v 0.101824 -0.010029 -0.102317
v 0.102193 -0.005020 -0.102317
v 0.102317 0.000000 -0.102317
v 0.102193 0.005020 -0.102317
v 0.101824 0.010029 -0.102317
v 0.101209 0.015013 -0.102317
v 0.100351 0.019961 -0.102317
v 0.099250 0.024861 -0.102317
v 0.097911 0.029701 -0.102317
v 0.096336 0.034469 -0.102317
v 0.094528 0.039155 -0.102317
v 0.092493 0.043746 -0.102317
v 0.090235 0.048232 -0.102317
v 0.087760 0.052601 -0.102317
v 0.085073 0.056844 -0.102317
v 0.082181 0.060950 -0.102317
v 0.079092 0.064909 -0.102317
v 0.075812 0.068712 -0.102317
v 0.072349 0.072349 -0.102317
v 0.068712 0.075812 -0.102317
v 0.064909 0.079092 -0.102317
v 0.060950 0.082181 -0.102317
v 0.056844 0.085073 -0.102317
v 0.052601 0.087760 -0.102317
v 0.048232 0.090235 -0.102317
v 0.043746 0.092493 -0.102317
v 0.039155 0.094528 -0.102317
v 0.034469 0.096336 -0.102317
v 0.029701 0.097911 -0.102317
v 0.024861 0.099250 -0.102317
v 0.019961 0.100351 -0.102317
v 0.015013 0.101209 -0.102317
v 0.010029 0.101824 -0.102317
vn -0.083700 0.850100 -0.519900
vn -0.000000 0.000000 1.000000
vn -0.041900 0.853200 -0.519900
vn 0.000000 0.854300 -0.519800
vn 0.041900 0.853200 -0.519900
vn -0.125300 0.845000 -0.519900
vn -0.166700 0.837800 -0.519800
vn -0.207600 0.828600 -0.519900
vn -0.247900 0.817500 -0.519900
vn -0.287800 0.804300 -0.519900
vn -0.326900 0.789200 -0.519900
vn -0.365200 0.772200 -0.519900
vn -0.402700 0.753400 -0.519900
vn -0.439200 0.732700 -0.519900
vn -0.474600 0.710300 -0.519900
vn -0.508800 0.686100 -0.519900
vn -0.541900 0.660400 -0.519900
vn -0.573700 0.633000 -0.519900
vn -0.604100 0.604000 -0.519900
vn -0.633000 0.573700 -0.519900
vn -0.660400 0.541900 -0.519900
vn -0.686100 0.508800 -0.519900
vn -0.710200 0.474600 -0.519900
vn -0.732700 0.439200 -0.519900
vn -0.753400 0.402700 -0.519900
vn -0.772200 0.365200 -0.519900
vn -0.789200 0.326900 -0.519900
vn -0.804300 0.287800 -0.519900
vn -0.817500 0.247900 -0.519900
vn -0.828600 0.207600 -0.519900
vn -0.837900 0.166700 -0.519800
vn -0.845000 0.125300 -0.519900
vn -0.850100 0.083700 -0.519900
vn -0.853200 0.041900 -0.519900
vn -0.854300 0.000000 -0.519800
vn -0.853200 -0.041900 -0.519900
vn -0.850100 -0.083700 -0.519900
vn -0.845000 -0.125300 -0.519900
vn -0.837800 -0.166700 -0.519800
vn -0.828600 -0.207600 -0.519900
vn -0.817500 -0.248000 -0.519900
vn -0.804300 -0.287800 -0.519900
vn -0.789200 -0.326900 -0.519900
vn -0.772200 -0.365200 -0.519900
vn -0.753400 -0.402700 -0.519900
vn -0.732700 -0.439200 -0.519900
vn -0.710300 -0.474600 -0.519900
vn -0.686100 -0.508800 -0.519900
vn -0.660400 -0.541900 -0.519900
vn -0.632900 -0.573700 -0.519900
vn -0.604000 -0.604000 -0.519900
vn -0.573700 -0.632900 -0.519900
vn -0.542000 -0.660300 -0.519900
vn -0.508900 -0.686200 -0.519900
vn -0.474600 -0.710300 -0.519900
vn -0.439100 -0.732700 -0.519900
vn -0.402700 -0.753400 -0.519900
vn -0.365300 -0.772200 -0.519900
vn -0.326900 -0.789200 -0.519900
vn -0.287800 -0.804300 -0.519900
vn -0.247900 -0.817500 -0.519900
vn -0.207600 -0.828600 -0.519900
vn -0.166700 -0.837800 -0.519800
vn -0.125300 -0.845000 -0.519900
vn -0.083700 -0.850100 -0.519900
vn -0.041900 -0.853200 -0.519900
vn -0.000000 -0.854300 -0.519800
vn 0.041900 -0.853200 -0.519900
vn 0.083700 -0.850100 -0.519900
vn 0.125300 -0.845000 -0.519900
vn 0.166700 -0.837800 -0.519800
vn 0.207600 -0.828600 -0.519900
vn 0.247900 -0.817500 -0.519900
vn 0.287800 -0.804300 -0.519800
vn 0.327000 -0.789200 -0.519900
vn 0.365200 -0.772200 -0.519900
vn 0.402700 -0.753400 -0.519900
vn 0.439200 -0.732700 -0.519900
vn 0.474600 -0.710200 -0.519900
vn 0.508800 -0.686100 -0.519900
vn 0.541900 -0.660400 -0.519900
vn 0.573600 -0.633000 -0.519900
vn 0.604000 -0.604000 -0.519900
vn 0.633000 -0.573700 -0.519900
vn 0.660400 -0.541900 -0.519900
vn 0.686100 -0.508800 -0.519900
vn 0.710300 -0.474600 -0.519900
vn 0.732700 -0.439200 -0.519900
vn 0.753400 -0.402700 -0.519900
vn 0.772200 -0.365200 -0.519900
vn 0.789200 -0.326900 -0.519900
vn 0.804300 -0.287800 -0.519900
vn 0.817500 -0.247900 -0.519800
vn 0.828600 -0.207600 -0.519900
vn 0.837800 -0.166700 -0.519900
vn 0.845000 -0.125300 -0.519900
vn 0.850200 -0.083700 -0.519800
vn 0.853200 -0.041900 -0.519900
vn 0.854300 0.000000 -0.519800
vn 0.853200 0.041900 -0.519900
vn 0.850100 0.083700 -0.519900
vn 0.845000 0.125300 -0.519900
vn 0.837900 0.166700 -0.519800
vn 0.828600 0.207600 -0.519900
vn 0.817500 0.247900 -0.519900
vn 0.804300 0.287800 -0.519900
vn 0.789200 0.326900 -0.519900
vn 0.772200 0.365200 -0.519900
vn 0.753400 0.402700 -0.519900
vn 0.732700 0.439200 -0.519900
vn 0.710200 0.474600 -0.519900
vn 0.686100 0.508800 -0.519900
vn 0.660400 0.541900 -0.519900
vn 0.633000 0.573700 -0.519900
vn 0.604100 0.604000 -0.519900
vn 0.573700 0.633000 -0.519900
vn 0.541900 0.660400 -0.519900
vn 0.508800 0.686100 -0.519900
vn 0.474600 0.710300 -0.519900
vn 0.439200 0.732700 -0.519900
vn 0.402700 0.753400 -0.519900
vn 0.365200 0.772200 -0.519900
vn 0.326900 0.789200 -0.519900
vn 0.287800 0.804300 -0.519900
vn 0.247900 0.817500 -0.519900
vn 0.207600 0.828600 -0.519900
vn 0.166700 0.837800 -0.519800
vn 0.125300 0.845000 -0.519900
vn 0.083700 0.850100 -0.519900
usemtl Material
s 1
f 1//1 2//2 3//3
f 4//4 2//2 5//5
f 6//6 2//2 1//1
f 7//7 2//2 6//6
f 8//8 2//2 7//7
f 9//9 2//2 8//8
f 10//10 2//2 9//9
f 11//11 2//2 10//10
f 12//12 2//2 11//11
f 13//13 2//2 12//12
f 14//14 2//2 13//13
f 15//15 2//2 14//14
f 16//16 2//2 15//15
f 17//17 2//2 16//16
f 18//18 2//2 17//17
f 19//19 2//2 18//18
f 20//20 2//2 19//19
f 21//21 2//2 20//20
f 22//22 2//2 21//21
f 23//23 2//2 22//22
f 24//24 2//2 23//23
f 25//25 2//2 24//24
f 26//26 2//2 25//25
f 27//27 2//2 26//26
f 28//28 2//2 27//27
f 29//29 2//2 28//28
f 30//30 2//2 29//29
f 31//31 2//2 30//30
f 32//32 2//2 31//31
f 33//33 2//2 32//32
f 34//34 2//2 33//33
f 35//35 2//2 34//34
f 36//36 2//2 35//35
f 37//37 2//2 36//36
f 38//38 2//2 37//37
f 39//39 2//2 38//38
f 40//40 2//2 39//39
f 41//41 2//2 40//40
f 42//42 2//2 41//41
f 43//43 2//2 42//42
f 44//44 2//2 43//43
f 45//45 2//2 44//44
f 46//46 2//2 45//45
f 47//47 2//2 46//46
f 48//48 2//2 47//47
f 49//49 2//2 48//48
f 50//50 2//2 49//49
f 51//51 2//2 50//50
f 52//52 2//2 51//51
f 53//53 2//2 52//52
f 54//54 2//2 53//53
f 55//55 2//2 54//54
f 56//56 2//2 55//55
f 57//57 2//2 56//56
f 58//58 2//2 57//57
f 59//59 2//2 58//58
f 60//60 2//2 59//59
f 61//61 2//2 60//60
f 62//62 2//2 61//61
f 63//63 2//2 62//62
f 64//64 2//2 63//63
f 65//65 2//2 64//64
f 66//66 2//2 65//65
f 67//67 2//2 66//66
f 68//68 2//2 67//67
f 69//69 2//2 68//68
f 70//70 2//2 69//69
f 71//71 2//2 70//70
f 72//72 2//2 71//71
f 73//73 2//2 72//72
f 74//74 2//2 73//73
f 75//75 2//2 74//74
f 76//76 2//2 75//75
f 77//77 2//2 76//76
f 78//78 2//2 77//77
f 79//79 2//2 78//78
f 80//80 2//2 79//79
f 81//81 2//2 80//80
f 82//82 2//2 81//81
f 83//83 2//2 82//82
f 84//84 2//2 83//83
f 85//85 2//2 84//84
f 86//86 2//2 85//85
f 87//87 2//2 86//86
f 88//88 2//2 87//87
f 89//89 2//2 88//88
f 90//90 2//2 89//89
f 91//91 2//2 90//90
f 92//92 2//2 91//91
f 93//93 2//2 92//92
f 94//94 2//2 93//93
f 95//95 2//2 94//94
f 96//96 2//2 95//95
f 97//97 2//2 96//96
f 98//98 2//2 97//97
f 99//99 2//2 98//98
f 100//100 2//2 99//99
f 101//101 2//2 100//100
f 102//102 2//2 101//101
f 103//103 2//2 102//102
f 104//104 2//2 103//103
f 105//105 2//2 104//104
f 106//106 2//2 105//105
f 107//107 2//2 106//106
f 108//108 2//2 107//107
f 109//109 2//2 108//108
f 110//110 2//2 109//109
f 111//111 2//2 110//110
f 112//112 2//2 111//111
f 113//113 2//2 112//112
f 114//114 2//2 113//113
f 115//115 2//2 114//114
f 116//116 2//2 115//115
f 117//117 2//2 116//116
f 118//118 2//2 117//117
f 119//119 2//2 118//118
f 120//120 2//2 119//119
f 121//121 2//2 120//120
f 122//122 2//2 121//121
f 123//123 2//2 122//122
f 124//124 2//2 123//123
f 125//125 2//2 124//124
f 126//126 2//2 125//125
f 127//127 2//2 126//126
f 128//128 2//2 127//127
f 129//129 2//2 128//128
f 3//3 2//2 4//4
f 5//5 2//2 129//129
f 68//68 36//36 3//3
f 3//3 4//4 5//5
f 5//5 129//129 128//128
f 128//128 127//127 126//126
f 126//126 125//125 124//124
f 124//124 123//123 122//122
f 122//122 121//121 124//124
f 120//120 119//119 116//116
f 118//118 117//117 116//116
f 116//116 115//115 112//112
f 114//114 113//113 112//112
f 112//112 111//111 110//110
f 110//110 109//109 108//108
f 108//108 107//107 106//106
f 106//106 105//105 108//108
f 104//104 103//103 102//102
f 102//102 101//101 100//100
f 100//100 99//99 98//98
f 98//98 97//97 100//100
f 96//96 95//95 92//92
f 94//94 93//93 92//92
f 92//92 91//91 90//90
f 90//90 89//89 88//88
f 88//88 87//87 86//86
f 86//86 85//85 88//88
f 84//84 83//83 80//80
f 82//82 81//81 80//80
f 80//80 79//79 78//78
f 78//78 77//77 76//76
f 76//76 75//75 74//74
f 74//74 73//73 72//72
f 72//72 71//71 68//68
f 70//70 69//69 68//68
f 68//68 67//67 64//64
f 66//66 65//65 64//64
f 64//64 63//63 62//62
f 62//62 61//61 64//64
f 60//60 59//59 56//56
f 58//58 57//57 56//56
f 56//56 55//55 54//54
f 54//54 53//53 52//52
f 52//52 51//51 50//50
f 50//50 49//49 52//52
f 48//48 47//47 46//46
f 46//46 45//45 48//48
f 44//44 43//43 40//40
f 42//42 41//41 40//40
f 40//40 39//39 38//38
f 38//38 37//37 36//36
f 36//36 35//35 34//34
f 34//34 33//33 32//32
f 32//32 31//31 30//30
f 30//30 29//29 32//32
f 28//28 27//27 24//24
f 26//26 25//25 24//24
f 24//24 23//23 22//22
f 22//22 21//21 24//24
f 20//20 19//19 18//18
f 18//18 17//17 20//20
f 16//16 15//15 14//14
f 14//14 13//13 12//12
f 12//12 11//11 10//10
f 10//10 9//9 12//12
f 8//8 7//7 6//6
f 6//6 1//1 3//3
f 3//3 5//5 124//124
f 128//128 126//126 124//124
f 124//124 121//121 120//120
f 119//119 118//118 116//116
f 115//115 114//114 112//112
f 112//112 110//110 108//108
f 108//108 105//105 104//104
f 104//104 102//102 100//100
f 100//100 97//97 96//96
f 95//95 94//94 92//92
f 92//92 90//90 84//84
f 88//88 85//85 84//84
f 83//83 82//82 80//80
f 80//80 78//78 84//84
f 76//76 74//74 68//68
f 71//71 70//70 68//68
f 67//67 66//66 64//64
f 64//64 61//61 60//60
f 59//59 58//58 56//56
f 56//56 54//54 60//60
f 52//52 49//49 48//48
f 48//48 45//45 44//44
f 43//43 42//42 40//40
f 40//40 38//38 44//44
f 36//36 34//34 32//32
f 32//32 29//29 28//28
f 27//27 26//26 24//24
f 24//24 21//21 20//20
f 20//20 17//17 16//16
f 16//16 14//14 12//12
f 12//12 9//9 8//8
f 8//8 6//6 12//12
f 5//5 128//128 124//124
f 124//124 120//120 116//116
f 116//116 112//112 108//108
f 108//108 104//104 100//100
f 100//100 96//96 92//92
f 90//90 88//88 84//84
f 84//84 78//78 76//76
f 74//74 72//72 68//68
f 68//68 64//64 52//52
f 60//60 54//54 52//52
f 52//52 48//48 44//44
f 44//44 38//38 36//36
f 36//36 32//32 28//28
f 28//28 24//24 36//36
f 20//20 16//16 12//12
f 12//12 6//6 3//3
f 3//3 124//124 116//116
f 116//116 108//108 100//100
f 100//100 92//92 84//84
f 84//84 76//76 68//68
f 64//64 60//60 52//52
f 52//52 44//44 36//36
f 36//36 24//24 20//20
f 20//20 12//12 36//36
f 3//3 116//116 100//100
f 100//100 84//84 68//68
f 68//68 52//52 36//36
f 36//36 12//12 3//3
f 3//3 100//100 68//68
